<svg xmlns="http://www.w3.org/2000/svg" width="194" height="29" viewBox="0 0 194 29">
  <g fill-rule="evenodd">
    <polygon points="7.385 12.083 32 12.083 24.615 19.333 0 19.333"/>
    <polygon points="7.385 0 32 0 24.615 7.25 0 7.25"/>
    <polygon points="0 21.75 7.385 21.75 0 29"/>
    <path d="M44.68,7 L55.34,7 L53.34,9.8 L47.76,9.8 L47.76,12.78 L54.44,12.78 L52.44,15.58 L47.76,15.58 L47.76,21 L44.68,21 L44.68,7 Z M65.4333334,21.24 C64.353328,21.24 63.3600046,21.0500019 62.4533334,20.67 C61.5466622,20.2899981 60.7633367,19.7766699 60.1033334,19.13 C59.4433301,18.4833301 58.9300019,17.7233377 58.5633334,16.85 C58.1966649,15.9766623 58.0133334,15.040005 58.0133334,14.04 C58.0133334,12.999995 58.1999982,12.0633377 58.5733334,11.19 C58.9466686,10.3166623 59.4633301,9.5500033 60.1233334,8.89 C60.7833367,8.2299967 61.5699955,7.7100019 62.4833334,7.33 C63.3966713,6.9499981 64.393328,6.76 65.4733334,6.76 C66.5533388,6.76 67.5466622,6.9499981 68.4533334,7.33 C69.3600046,7.7100019 70.1433301,8.2233301 70.8033334,8.87 C71.4633367,9.5166699 71.9766649,10.2766623 72.3433334,11.15 C72.7100019,12.0233377 72.8933334,12.959995 72.8933334,13.96 C72.8933334,15.000005 72.7066686,15.9366623 72.3333334,16.81 C71.9599982,17.6833377 71.4433367,18.4499967 70.7833334,19.11 C70.1233301,19.7700033 69.3366713,20.2899981 68.4233334,20.67 C67.5099955,21.0500019 66.5133388,21.24 65.4333334,21.24 Z M65.4733334,18.4 C66.0866698,18.4 66.6533308,18.2866678 67.1733334,18.06 C67.693336,17.8333322 68.1366649,17.520002 68.5033334,17.12 C68.8700019,16.719998 69.1566657,16.2566693 69.3633334,15.73 C69.5700011,15.2033307 69.6733334,14.640003 69.6733334,14.04 L69.6733334,14 C69.6733334,13.399997 69.5700011,12.833336 69.3633334,12.3 C69.1566657,11.766664 68.8633353,11.300002 68.4833334,10.9 C68.1033315,10.499998 67.653336,10.1833345 67.1333334,9.95 C66.6133308,9.7166655 66.0466698,9.6 65.4333334,9.6 C64.8066636,9.6 64.2366693,9.7133322 63.7233334,9.94 C63.2099975,10.1666678 62.7700019,10.479998 62.4033334,10.88 C62.0366649,11.280002 61.7500011,11.7433307 61.5433334,12.27 C61.3366657,12.7966693 61.2333334,13.359997 61.2333334,13.96 L61.2333334,14 C61.2333334,14.600003 61.3366657,15.166664 61.5433334,15.7 C61.7500011,16.233336 62.0433315,16.699998 62.4233334,17.1 C62.8033353,17.500002 63.2499975,17.8166655 63.7633334,18.05 C64.2766693,18.2833345 64.8466636,18.4 65.4733334,18.4 Z M82.3066667,21.22 C80.4266573,21.22 78.9466721,20.7000052 77.8666667,19.66 C76.7866613,18.6199948 76.2466667,17.066677 76.2466667,15 L76.2466667,7 L79.3266667,7 L79.3266667,14.92 C79.3266667,16.0666724 79.5933307,16.9299971 80.1266667,17.51 C80.6600027,18.0900029 81.3999953,18.38 82.3466667,18.38 C83.2933381,18.38 84.0333307,18.1000028 84.5666667,17.54 C85.1000027,16.9799972 85.3666667,16.1400056 85.3666667,15.02 L85.3666667,7 L88.4466667,7 L88.4466667,14.9 C88.4466667,15.966672 88.3033348,16.8933294 88.0166667,17.68 C87.7299986,18.4666706 87.3200027,19.1233307 86.7866667,19.65 C86.2533307,20.1766693 85.6066705,20.5699987 84.8466667,20.83 C84.0866629,21.0900013 83.2400047,21.22 82.3066667,21.22 Z M92.4200001,7 L95.2600001,7 L101.82,15.62 L101.82,7 L104.86,7 L104.86,21 L102.24,21 L95.4600001,12.1 L95.4600001,21 L92.4200001,21 L92.4200001,7 Z M109.053333,7 L114.513333,7 C115.606672,7 116.609996,7.1766649 117.523333,7.53 C118.436671,7.8833351 119.22333,8.3733302 119.883333,9 C120.543337,9.6266698 121.053332,10.3633291 121.413333,11.21 C121.773335,12.0566709 121.953333,12.9733284 121.953333,13.96 C121.953333,14.9866716 121.773335,15.9066624 121.413333,16.76 C121.053332,17.6133376 120.543337,18.3533302 119.883333,18.98 C119.22333,19.6066698 118.436671,20.0999982 117.523333,20.46 C116.609996,20.8200018 115.606672,21 114.513333,21 L109.053333,21 L109.053333,7 Z M112.133333,9.78 L112.133333,18.22 L114.513333,18.22 C115.140003,18.22 115.713331,18.120001 116.233333,17.92 C116.753336,17.719999 117.196665,17.4333352 117.563333,17.06 C117.930002,16.6866648 118.216666,16.2466692 118.423333,15.74 C118.630001,15.2333308 118.733333,14.6666698 118.733333,14.04 L118.733333,14 C118.733333,13.3866636 118.630001,12.8200026 118.423333,12.3 C118.216666,11.7799974 117.930002,11.3333352 117.563333,10.96 C117.196665,10.5866648 116.753336,10.2966677 116.233333,10.09 C115.713331,9.8833323 115.140003,9.78 114.513333,9.78 L112.133333,9.78 Z M125.526667,7 L136.086667,7 L134.086667,9.74 L128.586667,9.74 L128.586667,12.58 L135.186667,12.58 L133.186667,15.32 L128.586667,15.32 L128.586667,18.26 L136.186667,18.26 L134.186667,21 L125.526667,21 L125.526667,7 Z M139.76,7 L146.16,7 C147.933342,7 149.293329,7.4733286 150.24,8.42 C151.040004,9.220004 151.44,10.28666 151.44,11.62 C151.44,12.793339 151.163336,13.7166631 150.61,14.43 C150.056664,15.1433369 149.333338,15.666665 148.44,16 L151.86,21 L148.26,21 L145.26,16.52 L142.84,16.52 L142.84,21 L139.76,21 L139.76,7 Z M145.96,13.8 C146.720004,13.8 147.303332,13.6200018 147.71,13.26 C148.116669,12.8999982 148.32,12.420003 148.32,11.82 L148.32,11.78 C148.32,11.11333 148.106669,10.613335 147.68,10.28 C147.253331,9.946665 146.660004,9.78 145.9,9.78 L142.84,9.78 L142.84,13.8 L145.96,13.8 Z M161.853334,21.24 C160.773328,21.24 159.780005,21.0500019 158.873334,20.67 C157.966662,20.2899981 157.183337,19.7766699 156.523334,19.13 C155.86333,18.4833301 155.350002,17.7233377 154.983334,16.85 C154.616665,15.9766623 154.433334,15.040005 154.433334,14.04 C154.433334,12.999995 154.619998,12.0633377 154.993334,11.19 C155.366669,10.3166623 155.88333,9.5500033 156.543334,8.89 C157.203337,8.2299967 157.989996,7.7100019 158.903334,7.33 C159.816672,6.9499981 160.813328,6.76 161.893334,6.76 C162.973339,6.76 163.966662,6.9499981 164.873334,7.33 C165.780005,7.7100019 166.56333,8.2233301 167.223334,8.87 C167.883337,9.5166699 168.396665,10.2766623 168.763334,11.15 C169.130002,12.0233377 169.313334,12.959995 169.313334,13.96 C169.313334,15.000005 169.126669,15.9366623 168.753334,16.81 C168.379998,17.6833377 167.863337,18.4499967 167.203334,19.11 C166.54333,19.7700033 165.756672,20.2899981 164.843334,20.67 C163.929996,21.0500019 162.933339,21.24 161.853334,21.24 Z M161.893334,18.4 C162.50667,18.4 163.073331,18.2866678 163.593334,18.06 C164.113336,17.8333322 164.556665,17.520002 164.923334,17.12 C165.290002,16.719998 165.576666,16.2566693 165.783334,15.73 C165.990001,15.2033307 166.093334,14.640003 166.093334,14.04 L166.093334,14 C166.093334,13.399997 165.990001,12.833336 165.783334,12.3 C165.576666,11.766664 165.283336,11.300002 164.903334,10.9 C164.523332,10.499998 164.073336,10.1833345 163.553334,9.95 C163.033331,9.7166655 162.46667,9.6 161.853334,9.6 C161.226664,9.6 160.65667,9.7133322 160.143334,9.94 C159.629998,10.1666678 159.190002,10.479998 158.823334,10.88 C158.456665,11.280002 158.170001,11.7433307 157.963334,12.27 C157.756666,12.7966693 157.653334,13.359997 157.653334,13.96 L157.653334,14 C157.653334,14.600003 157.756666,15.166664 157.963334,15.7 C158.170001,16.233336 158.463332,16.699998 158.843334,17.1 C159.223336,17.500002 159.669998,17.8166655 160.183334,18.05 C160.69667,18.2833345 161.266664,18.4 161.893334,18.4 Z M173.026667,7 L176.106667,7 L176.106667,21 L173.026667,21 L173.026667,7 Z M180.44,7 L185.9,7 C186.993339,7 187.996662,7.1766649 188.91,7.53 C189.823338,7.8833351 190.609997,8.3733302 191.27,9 C191.930004,9.6266698 192.439999,10.3633291 192.8,11.21 C193.160002,12.0566709 193.34,12.9733284 193.34,13.96 C193.34,14.9866716 193.160002,15.9066624 192.8,16.76 C192.439999,17.6133376 191.930004,18.3533302 191.27,18.98 C190.609997,19.6066698 189.823338,20.0999982 188.91,20.46 C187.996662,20.8200018 186.993339,21 185.9,21 L180.44,21 L180.44,7 Z M183.52,9.78 L183.52,18.22 L185.9,18.22 C186.52667,18.22 187.099998,18.120001 187.62,17.92 C188.140003,17.719999 188.583332,17.4333352 188.95,17.06 C189.316669,16.6866648 189.603333,16.2466692 189.81,15.74 C190.016668,15.2333308 190.12,14.6666698 190.12,14.04 L190.12,14 C190.12,13.3866636 190.016668,12.8200026 189.81,12.3 C189.603333,11.7799974 189.316669,11.3333352 188.95,10.96 C188.583332,10.5866648 188.140003,10.2966677 187.62,10.09 C187.099998,9.8833323 186.52667,9.78 185.9,9.78 L183.52,9.78 Z"/>
  </g>
</svg>
