<?xml version="1.0" encoding="UTF-8"?>
<svg width="255px" height="98px" viewBox="0 0 255 98" version="1.1" xmlns="http://www.w3.org/2000/svg" xmlns:xlink="http://www.w3.org/1999/xlink">
    <!-- Generator: Sketch 44.1 (41455) - http://www.bohemiancoding.com/sketch -->
    <title>Group 2</title>
    <desc>Created with Sketch.</desc>
    <defs></defs>
    <g id="Page-1" stroke="none" stroke-width="1" fill="none" fill-rule="evenodd">
        <g id="Artboard-Copy-11" transform="translate(-359.000000, -157.000000)">
            <g id="Group-2" transform="translate(359.000000, 157.000000)">
                <path d="M13.0057143,12.616 C16.0297143,12.904 16.8937143,14.848 18.2617143,17.8 C22.9417143,27.808 27.4057143,37.816 32.0137143,47.824 C32.9497143,49.912 35.7577143,56.392 36.9817143,59.416 C37.3417143,59.56 37.7017143,59.632 38.0617143,59.632 C38.4217143,59.632 38.7097143,59.56 38.9257143,59.416 C41.0137143,53.44 45.3337143,44.224 47.9257143,38.968 C50.1577143,44.008 54.3337143,53.008 56.6377143,59.416 C56.9257143,59.56 57.2857143,59.632 57.6457143,59.632 C58.0057143,59.632 58.2937143,59.56 58.5097143,59.416 C61.4617143,51.712 64.3417143,44.656 67.5097143,37.312 L72.7657143,25.144 C77.0857143,15.136 77.7337143,12.976 81.3337143,12.616 L82.7017143,12.472 C83.2057143,11.896 83.1337143,10.96 82.5577143,10.744 C80.6857143,10.888 78.5977143,10.96 75.8617143,10.96 C73.6297143,10.96 71.6857143,10.888 68.9497143,10.744 C68.3737143,11.032 68.3017143,11.824 68.8777143,12.472 L70.9657143,12.616 C72.4777143,12.688 73.3417143,13.264 73.3417143,14.272 C73.3417143,15.136 72.1177143,18.232 71.1817143,20.824 C70.6777143,22.12 66.8617143,31.696 65.4217143,35.152 C63.3337143,40.264 61.1737143,45.304 58.9417143,50.344 C56.5657143,44.872 54.0457143,39.472 51.5977143,33.928 C51.2377143,33.064 51.0937143,32.488 51.0937143,32.2 C51.0937143,31.912 51.3817143,31.192 51.7417143,30.472 C52.8217143,27.952 55.8457143,21.688 57.3577143,19.024 C58.9417143,16.072 60.2377143,12.832 63.2617143,12.616 L65.3497143,12.472 C65.7817143,11.896 65.7097143,10.96 65.2057143,10.744 C63.5497143,10.888 60.6697143,10.96 58.2937143,10.96 C55.6297143,10.96 53.4697143,10.888 51.5257143,10.744 C51.0217143,10.96 50.8777143,11.752 51.3817143,12.472 L53.5417143,12.616 C55.8457143,12.76 56.2057143,13.552 53.6137143,19.672 C52.0297143,23.56 50.7337143,26.296 49.3657143,29.104 C47.3497143,24.64 45.3337143,20.104 43.8217143,16.576 C42.4537143,13.336 42.5257143,12.832 45.3337143,12.616 L47.2057143,12.472 C47.6377143,11.896 47.5657143,10.96 47.0617143,10.744 C45.4057143,10.888 42.7417143,10.96 39.1417143,10.96 C36.2617143,10.96 33.5257143,10.888 31.4377143,10.744 C30.8617143,11.032 30.7897143,11.896 31.2937143,12.472 L33.0217143,12.616 C35.4697143,12.832 36.5497143,14.344 37.6297143,16.576 C40.3657143,22.336 43.0297143,28.096 45.5497143,33.856 C45.9097143,34.72 46.1257143,35.368 46.1257143,35.728 C46.1257143,36.088 45.6217143,37.312 44.9737143,38.68 C43.1017143,42.712 41.1577143,46.744 39.4297143,50.344 C35.2537143,41.488 31.0057143,32.488 26.9737143,23.488 C24.7417143,18.376 23.2297143,14.704 23.2297143,13.84 C23.2297143,13.192 24.0937143,12.76 25.6057143,12.616 L27.2617143,12.472 C27.6937143,11.968 27.7657143,10.96 27.1177143,10.744 C24.5977143,10.888 20.9257143,10.96 18.9097143,10.96 C16.6777143,10.96 13.4377143,10.888 11.4937143,10.744 C10.9177143,11.032 10.8457143,12.04 11.2777143,12.472 L13.0057143,12.616 Z M85.6697143,50.416 C85.6697143,55.6 85.5977143,56.32 82.9337143,56.68 L81.4217143,56.896 C80.9177143,57.256 81.0617143,58.48 81.5657143,58.696 C83.5817143,58.552 85.7417143,58.48 88.3337143,58.48 C90.8537143,58.48 92.9417143,58.552 95.1017143,58.696 C95.6057143,58.48 95.7497143,57.256 95.2457143,56.896 L93.7337143,56.68 C91.1417143,56.32 90.9977143,55.6 90.9977143,50.416 L90.9977143,37.456 C90.9977143,34.504 91.1417143,31.048 91.2857143,28.528 C91.2137143,28.24 90.9257143,28.096 90.5657143,28.096 C88.9097143,29.176 84.8057143,31.048 83.1497143,31.624 C82.7897143,31.84 82.7897143,32.632 83.0777143,32.92 L83.7257143,33.352 C85.6697143,34.648 85.6697143,35.008 85.6697143,37.816 L85.6697143,50.416 Z M88.0457143,13.552 C85.8857143,13.552 84.1577143,15.064 84.1577143,17.44 C84.1577143,19.384 85.5977143,21.04 87.8297143,21.04 C89.8457143,21.04 91.6457143,19.888 91.6457143,17.296 C91.6457143,15.28 90.2057143,13.552 88.0457143,13.552 Z M104.173714,50.416 C104.173714,55.6 104.101714,56.32 101.437714,56.68 L99.9257143,56.896 C99.4217143,57.256 99.5657143,58.48 100.069714,58.696 C102.085714,58.552 104.245714,58.48 106.837714,58.48 C109.357714,58.48 111.445714,58.552 113.389714,58.696 C113.893714,58.48 114.037714,57.256 113.533714,56.896 L112.237714,56.68 C109.645714,56.248 109.501714,55.6 109.501714,50.416 L109.501714,39.4 C109.501714,37.312 109.645714,36.304 110.581714,35.08 C111.589714,33.712 113.965714,32.56 116.701714,32.56 C121.597714,32.56 123.469714,35.584 123.469714,39.688 L123.469714,50.416 C123.469714,55.6 123.397714,56.248 120.733714,56.68 L119.365714,56.896 C118.861714,57.256 119.005714,58.48 119.509714,58.696 C121.453714,58.552 123.613714,58.48 126.205714,58.48 C128.725714,58.48 130.813714,58.552 132.973714,58.696 C133.477714,58.48 133.621714,57.256 133.117714,56.896 L131.533714,56.68 C128.941714,56.32 128.797714,55.6 128.797714,50.416 L128.797714,38.032 C128.797714,33.208 126.349714,29.104 120.373714,29.104 C116.701714,29.104 113.317714,30.904 110.293714,32.776 C109.789714,32.776 109.501714,32.416 109.501714,31.984 C109.501714,31.336 109.501714,30.256 109.645714,28.6 C109.501714,28.24 109.141714,28.096 108.853714,28.096 C107.413714,29.176 103.309714,31.048 101.653714,31.624 C101.293714,31.84 101.293714,32.632 101.581714,32.92 L102.229714,33.352 C104.173714,34.648 104.173714,35.008 104.173714,37.816 L104.173714,50.416 Z M161.197714,31.696 L167.029714,31.696 C167.821714,32.056 167.677714,34.504 166.597714,34.648 L161.413714,34.648 C161.557714,35.872 161.557714,37.096 161.557714,38.32 C161.557714,43.288 158.605714,49.768 149.461714,49.768 C148.165714,49.768 147.157714,49.624 146.293714,49.552 C145.429714,50.056 143.125714,51.424 143.125714,53.512 C143.125714,55.168 144.781714,56.536 148.165714,56.536 C150.613714,56.536 153.565714,56.32 156.733714,56.32 C160.765714,56.32 166.813714,57.04 166.813714,64.24 C166.813714,72.088 158.245714,77.848 148.885714,77.848 C140.029714,77.848 136.933714,73.096 136.933714,69.496 C136.933714,68.344 137.221714,67.408 137.725714,66.832 C138.949714,65.536 140.965714,63.664 142.621714,62.008 C143.269714,61.36 143.845714,60.712 143.197714,60.28 C140.389714,59.56 137.941714,57.112 137.941714,54.592 C137.941714,54.232 138.229714,53.944 139.021714,53.368 C140.245714,52.576 141.613714,51.352 142.837714,50.056 C143.197714,49.624 143.557714,49.048 143.557714,48.688 C141.109714,47.392 138.157714,44.584 138.157714,39.976 C138.157714,33.784 143.485714,29.104 149.893714,29.104 C152.629714,29.104 155.149714,29.824 156.805714,30.544 C159.109714,31.552 159.613714,31.696 161.197714,31.696 Z M154.429714,60.784 L151.981714,60.784 C149.677714,60.784 146.797714,60.928 145.789714,61.576 C144.061714,62.656 142.333714,64.888 142.333714,67.624 C142.333714,71.512 145.429714,74.752 151.981714,74.752 C158.389714,74.752 162.637714,71.152 162.637714,67.048 C162.637714,62.656 159.613714,60.784 154.429714,60.784 Z M150.541714,47.68 C154.429714,47.68 156.445714,44.584 156.445714,40.192 C156.445714,35.296 154.429714,31.192 150.037714,31.192 C146.581714,31.192 143.989714,34.36 143.989714,39.256 C143.989714,44.368 147.085714,47.68 150.541714,47.68 Z M175.085714,50.416 C175.085714,55.6 175.013714,56.32 172.349714,56.68 L170.837714,56.896 C170.333714,57.256 170.477714,58.48 170.981714,58.696 C172.997714,58.552 175.157714,58.48 177.749714,58.48 C180.269714,58.48 182.357714,58.552 184.517714,58.696 C185.021714,58.48 185.165714,57.256 184.661714,56.896 L183.149714,56.68 C180.557714,56.32 180.413714,55.6 180.413714,50.416 L180.413714,37.456 C180.413714,34.504 180.557714,31.048 180.701714,28.528 C180.629714,28.24 180.341714,28.096 179.981714,28.096 C178.325714,29.176 174.221714,31.048 172.565714,31.624 C172.205714,31.84 172.205714,32.632 172.493714,32.92 L173.141714,33.352 C175.085714,34.648 175.085714,35.008 175.085714,37.816 L175.085714,50.416 Z M177.461714,13.552 C175.301714,13.552 173.573714,15.064 173.573714,17.44 C173.573714,19.384 175.013714,21.04 177.245714,21.04 C179.261714,21.04 181.061714,19.888 181.061714,17.296 C181.061714,15.28 179.621714,13.552 177.461714,13.552 Z M207.629714,33.136 L199.925714,33.136 C198.701714,33.136 198.701714,33.28 198.701714,35.224 L198.701714,50.416 C198.701714,55.6 198.845714,56.464 201.437714,56.68 L204.029714,56.896 C204.533714,57.256 204.389714,58.48 203.885714,58.696 C200.645714,58.552 198.557714,58.48 196.037714,58.48 C193.445714,58.48 191.285714,58.552 189.125714,58.696 C188.621714,58.48 188.477714,57.256 188.981714,56.896 L190.637714,56.68 C193.301714,56.32 193.373714,55.6 193.373714,50.416 L193.373714,35.224 C193.373714,33.28 193.373714,33.136 191.933714,33.136 L189.413714,33.136 C188.981714,32.848 188.909714,32.2 189.197714,31.768 L192.293714,30.256 C192.869714,29.968 193.373714,29.536 193.373714,28.816 C193.373714,24.64 193.877714,20.176 195.605714,16.144 C197.405714,12.04 201.437714,7 208.565714,7 C212.381714,7 215.621714,8.728 215.621714,11.32 C215.621714,12.76 214.253714,13.912 212.885714,13.912 C212.093714,13.912 211.661714,13.624 211.157714,13.048 C209.789714,11.464 207.773714,9.88 205.397714,9.88 C203.165714,9.88 201.365714,11.248 200.285714,13.84 C198.989714,17.152 198.701714,22.408 198.701714,26.008 L198.701714,28.096 C198.701714,30.04 198.701714,30.112 199.925714,30.112 L208.133714,30.112 C208.925714,30.832 208.421714,32.848 207.629714,33.136 Z M217.309714,76.408 C215.221714,76.408 214.141714,75.112 214.141714,73.312 C214.141714,71.368 215.437714,70.432 217.021714,70.432 L218.389714,70.432 C219.541714,70.432 220.261714,69.928 220.765714,69.136 C222.853714,65.896 224.293714,62.872 224.941714,61.144 C225.157714,60.568 225.661714,59.056 225.661714,58.048 C225.661714,56.608 225.373714,55.744 224.437714,53.08 L218.821714,37.672 C217.597714,34.288 217.093714,32.56 214.573714,32.056 L212.773714,31.696 C212.341714,31.336 212.413714,30.112 212.989714,29.896 C215.293714,30.04 217.453714,30.112 219.829714,30.112 C221.773714,30.112 223.789714,30.04 226.093714,29.896 C226.669714,30.112 226.741714,31.336 226.237714,31.696 L224.437714,32.056 C223.429714,32.272 222.853714,32.488 222.853714,32.992 C222.853714,33.856 224.509714,38.536 224.941714,39.76 L227.245714,46.384 C227.677714,47.536 229.045714,51.352 229.333714,51.496 C229.549714,51.352 230.701714,49.12 231.997714,46.168 L234.445714,40.48 C236.029714,36.736 236.965714,34.072 236.965714,33.28 C236.965714,32.776 236.533714,32.272 235.237714,32.056 L233.005714,31.696 C232.501714,31.336 232.573714,30.112 233.149714,29.896 C235.453714,30.04 237.613714,30.112 239.485714,30.112 C241.285714,30.112 242.941714,30.04 244.957714,29.896 C245.533714,30.184 245.605714,31.264 245.101714,31.696 L243.877714,31.912 C241.501714,32.344 240.205714,34.432 237.757714,39.544 L233.725714,47.824 C231.349714,52.648 225.445714,65.176 221.917714,73.024 C220.693714,75.76 218.965714,76.408 217.309714,76.408 Z" id="Wingify" stroke="#788290" stroke-width="0.5"></path>
                <path d="M72.4501953,90.4863281 C72.4501953,92.6074325 71.861334,94.2289983 70.6835938,95.3510742 C69.5058535,96.4731501 67.8095814,97.0341797 65.5947266,97.0341797 L62,97.0341797 L62,84.1845703 L65.9726562,84.1845703 C68.0175883,84.1845703 69.6083928,84.7353461 70.7451172,85.8369141 C71.8818416,86.9384821 72.4501953,88.4882713 72.4501953,90.4863281 Z M70.2353516,90.5566406 C70.2353516,87.4804534 68.7968894,85.9423828 65.9199219,85.9423828 L64.1005859,85.9423828 L64.1005859,95.2675781 L65.5947266,95.2675781 C68.688492,95.2675781 70.2353516,93.6972813 70.2353516,90.5566406 Z M96.4785156,97.0341797 L89.2099609,97.0341797 L89.2099609,84.1845703 L96.4785156,84.1845703 L96.4785156,85.9599609 L91.3105469,85.9599609 L91.3105469,89.4580078 L96.1533203,89.4580078 L96.1533203,91.2158203 L91.3105469,91.2158203 L91.3105469,95.25 L96.4785156,95.25 L96.4785156,97.0341797 Z M120.665039,93.5449219 C120.665039,94.6875057 120.251957,95.5839811 119.425781,96.234375 C118.599605,96.8847689 117.459968,97.2099609 116.006836,97.2099609 C114.553704,97.2099609 113.364262,96.9843773 112.438477,96.5332031 L112.438477,94.546875 C113.024417,94.822267 113.646969,95.0390617 114.306152,95.1972656 C114.965335,95.3554695 115.579099,95.4345703 116.147461,95.4345703 C116.979496,95.4345703 117.59326,95.2763688 117.98877,94.9599609 C118.384279,94.6435531 118.582031,94.2187527 118.582031,93.6855469 C118.582031,93.2050757 118.400392,92.7978532 118.037109,92.4638672 C117.673826,92.1298811 116.923834,91.7343773 115.787109,91.2773438 C114.615229,90.802732 113.789065,90.2607452 113.308594,89.6513672 C112.828123,89.0419891 112.587891,88.3095746 112.587891,87.4541016 C112.587891,86.3818306 112.968746,85.538089 113.730469,84.9228516 C114.492191,84.3076141 115.514642,84 116.797852,84 C118.028326,84 119.252924,84.2695286 120.47168,84.8085938 L119.803711,86.5224609 C118.661127,86.0419898 117.641606,85.8017578 116.745117,85.8017578 C116.065426,85.8017578 115.549806,85.9497056 115.198242,86.2456055 C114.846678,86.5415054 114.670898,86.9326148 114.670898,87.4189453 C114.670898,87.7529314 114.74121,88.038573 114.881836,88.2758789 C115.022462,88.5131848 115.253905,88.7373036 115.576172,88.9482422 C115.898439,89.1591807 116.478511,89.4374983 117.316406,89.7832031 C118.25977,90.1757832 118.95117,90.5419905 119.390625,90.8818359 C119.83008,91.2216814 120.152343,91.6054666 120.357422,92.0332031 C120.562501,92.4609396 120.665039,92.9648408 120.665039,93.5449219 Z M137.152344,97.0341797 L137.152344,84.1845703 L139.25293,84.1845703 L139.25293,97.0341797 L137.152344,97.0341797 Z M161.901367,90.0644531 L166.629883,90.0644531 L166.629883,96.515625 C165.856441,96.7675794 165.113773,96.9462885 164.401855,97.0517578 C163.689938,97.1572271 162.920903,97.2099609 162.094727,97.2099609 C160.149404,97.2099609 158.649419,96.6342831 157.594727,95.4829102 C156.540034,94.3315372 156.012695,92.7070417 156.012695,90.609375 C156.012695,88.5410053 156.607416,86.9223691 157.796875,85.753418 C158.986334,84.5844668 160.624013,84 162.709961,84 C164.051765,84 165.323236,84.2578099 166.524414,84.7734375 L165.786133,86.5224609 C164.743159,86.0419898 163.700201,85.8017578 162.657227,85.8017578 C161.286126,85.8017578 160.202152,86.2324176 159.405273,87.09375 C158.608394,87.9550824 158.209961,89.132805 158.209961,90.6269531 C158.209961,92.1972735 158.568844,93.3911092 159.286621,94.2084961 C160.004398,95.025883 161.037103,95.4345703 162.384766,95.4345703 C163.064457,95.4345703 163.791012,95.3496102 164.564453,95.1796875 L164.564453,91.8662109 L161.901367,91.8662109 L161.901367,90.0644531 Z M194.419922,97.0341797 L191.844727,97.0341797 L185.525391,86.7949219 L185.455078,86.7949219 L185.499023,87.3662109 C185.581055,88.4560601 185.62207,89.4521439 185.62207,90.3544922 L185.62207,97.0341797 L183.714844,97.0341797 L183.714844,84.1845703 L186.263672,84.1845703 L192.56543,94.3710938 L192.618164,94.3710938 C192.606445,94.2363275 192.583008,93.7456097 192.547852,92.8989258 C192.512695,92.0522419 192.495117,91.3916039 192.495117,90.9169922 L192.495117,84.1845703 L194.419922,84.1845703 L194.419922,97.0341797 Z" id="Design" fill="#2B3945"></path>
                <path d="M255,58 L0,58 M0,9 L0,9 L255,9" id="Rectangle-3" stroke="#F200FF" stroke-width="0.2" transform="translate(127.500000, 34.000000) scale(-1, -1) translate(-127.500000, -34.000000) "></path>
                <path d="M10,68 L10,0 M246,0 L246,68" id="Rectangle-3" stroke="#F200FF" stroke-width="0.2" transform="translate(128.000000, 34.000000) scale(-1, -1) translate(-128.000000, -34.000000) "></path>
            </g>
        </g>
    </g>
</svg>