<?xml version="1.0" encoding="UTF-8"?>
<svg width="231px" height="92px" viewBox="0 0 231 92" version="1.1" xmlns="http://www.w3.org/2000/svg" xmlns:xlink="http://www.w3.org/1999/xlink">
    <!-- Generator: Sketch 44.1 (41455) - http://www.bohemiancoding.com/sketch -->
    <title>Group 2</title>
    <desc>Created with Sketch.</desc>
    <defs></defs>
    <g id="Page-1" stroke="none" stroke-width="1" fill="none" fill-rule="evenodd">
        <g id="Artboard-Copy-11" transform="translate(-368.000000, -163.000000)">
            <g id="Group-2" transform="translate(369.000000, 163.000000)">
                <path d="M1.512,6.136 C4.536,6.424 5.4,8.368 6.768,11.32 C11.448,21.328 15.912,31.336 20.52,41.344 C21.456,43.432 24.264,49.912 25.488,52.936 C25.848,53.08 26.208,53.152 26.568,53.152 C26.928,53.152 27.216,53.08 27.432,52.936 C29.52,46.96 33.84,37.744 36.432,32.488 C38.664,37.528 42.84,46.528 45.144,52.936 C45.432,53.08 45.792,53.152 46.152,53.152 C46.512,53.152 46.8,53.08 47.016,52.936 C49.968,45.232 52.848,38.176 56.016,30.832 L61.272,18.664 C65.592,8.656 66.24,6.496 69.84,6.136 L71.208,5.992 C71.712,5.416 71.64,4.48 71.064,4.264 C69.192,4.408 67.104,4.48 64.368,4.48 C62.136,4.48 60.192,4.408 57.456,4.264 C56.88,4.552 56.808,5.344 57.384,5.992 L59.472,6.136 C60.984,6.208 61.848,6.784 61.848,7.792 C61.848,8.656 60.624,11.752 59.688,14.344 C59.184,15.64 55.368,25.216 53.928,28.672 C51.84,33.784 49.68,38.824 47.448,43.864 C45.072,38.392 42.552,32.992 40.104,27.448 C39.744,26.584 39.6,26.008 39.6,25.72 C39.6,25.432 39.888,24.712 40.248,23.992 C41.328,21.472 44.352,15.208 45.864,12.544 C47.448,9.592 48.744,6.352 51.768,6.136 L53.856,5.992 C54.288,5.416 54.216,4.48 53.712,4.264 C52.056,4.408 49.176,4.48 46.8,4.48 C44.136,4.48 41.976,4.408 40.032,4.264 C39.528,4.48 39.384,5.272 39.888,5.992 L42.048,6.136 C44.352,6.28 44.712,7.072 42.12,13.192 C40.536,17.08 39.24,19.816 37.872,22.624 C35.856,18.16 33.84,13.624 32.328,10.096 C30.96,6.856 31.032,6.352 33.84,6.136 L35.712,5.992 C36.144,5.416 36.072,4.48 35.568,4.264 C33.912,4.408 31.248,4.48 27.648,4.48 C24.768,4.48 22.032,4.408 19.944,4.264 C19.368,4.552 19.296,5.416 19.8,5.992 L21.528,6.136 C23.976,6.352 25.056,7.864 26.136,10.096 C28.872,15.856 31.536,21.616 34.056,27.376 C34.416,28.24 34.632,28.888 34.632,29.248 C34.632,29.608 34.128,30.832 33.48,32.2 C31.608,36.232 29.664,40.264 27.936,43.864 C23.76,35.008 19.512,26.008 15.48,17.008 C13.248,11.896 11.736,8.224 11.736,7.36 C11.736,6.712 12.6,6.28 14.112,6.136 L15.768,5.992 C16.2,5.488 16.272,4.48 15.624,4.264 C13.104,4.408 9.432,4.48 7.416,4.48 C5.184,4.48 1.944,4.408 0,4.264 C-0.576,4.552 -0.648,5.56 -0.216,5.992 L1.512,6.136 Z M76.176,43.936 C76.176,49.12 76.104,49.84 73.44,50.2 L71.928,50.416 C71.424,50.776 71.568,52 72.072,52.216 C74.088,52.072 76.248,52 78.84,52 C81.36,52 83.448,52.072 85.608,52.216 C86.112,52 86.256,50.776 85.752,50.416 L84.24,50.2 C81.648,49.84 81.504,49.12 81.504,43.936 L81.504,30.976 C81.504,28.024 81.648,24.568 81.792,22.048 C81.72,21.76 81.432,21.616 81.072,21.616 C79.416,22.696 75.312,24.568 73.656,25.144 C73.296,25.36 73.296,26.152 73.584,26.44 L74.232,26.872 C76.176,28.168 76.176,28.528 76.176,31.336 L76.176,43.936 Z M78.552,7.072 C76.392,7.072 74.664,8.584 74.664,10.96 C74.664,12.904 76.104,14.56 78.336,14.56 C80.352,14.56 82.152,13.408 82.152,10.816 C82.152,8.8 80.712,7.072 78.552,7.072 Z M94.68,43.936 C94.68,49.12 94.608,49.84 91.944,50.2 L90.432,50.416 C89.928,50.776 90.072,52 90.576,52.216 C92.592,52.072 94.752,52 97.344,52 C99.864,52 101.952,52.072 103.896,52.216 C104.4,52 104.544,50.776 104.04,50.416 L102.744,50.2 C100.152,49.768 100.008,49.12 100.008,43.936 L100.008,32.92 C100.008,30.832 100.152,29.824 101.088,28.6 C102.096,27.232 104.472,26.08 107.208,26.08 C112.104,26.08 113.976,29.104 113.976,33.208 L113.976,43.936 C113.976,49.12 113.904,49.768 111.24,50.2 L109.872,50.416 C109.368,50.776 109.512,52 110.016,52.216 C111.96,52.072 114.12,52 116.712,52 C119.232,52 121.32,52.072 123.48,52.216 C123.984,52 124.128,50.776 123.624,50.416 L122.04,50.2 C119.448,49.84 119.304,49.12 119.304,43.936 L119.304,31.552 C119.304,26.728 116.856,22.624 110.88,22.624 C107.208,22.624 103.824,24.424 100.8,26.296 C100.296,26.296 100.008,25.936 100.008,25.504 C100.008,24.856 100.008,23.776 100.152,22.12 C100.008,21.76 99.648,21.616 99.36,21.616 C97.92,22.696 93.816,24.568 92.16,25.144 C91.8,25.36 91.8,26.152 92.088,26.44 L92.736,26.872 C94.68,28.168 94.68,28.528 94.68,31.336 L94.68,43.936 Z M151.704,25.216 L157.536,25.216 C158.328,25.576 158.184,28.024 157.104,28.168 L151.92,28.168 C152.064,29.392 152.064,30.616 152.064,31.84 C152.064,36.808 149.112,43.288 139.968,43.288 C138.672,43.288 137.664,43.144 136.8,43.072 C135.936,43.576 133.632,44.944 133.632,47.032 C133.632,48.688 135.288,50.056 138.672,50.056 C141.12,50.056 144.072,49.84 147.24,49.84 C151.272,49.84 157.32,50.56 157.32,57.76 C157.32,65.608 148.752,71.368 139.392,71.368 C130.536,71.368 127.44,66.616 127.44,63.016 C127.44,61.864 127.728,60.928 128.232,60.352 C129.456,59.056 131.472,57.184 133.128,55.528 C133.776,54.88 134.352,54.232 133.704,53.8 C130.896,53.08 128.448,50.632 128.448,48.112 C128.448,47.752 128.736,47.464 129.528,46.888 C130.752,46.096 132.12,44.872 133.344,43.576 C133.704,43.144 134.064,42.568 134.064,42.208 C131.616,40.912 128.664,38.104 128.664,33.496 C128.664,27.304 133.992,22.624 140.4,22.624 C143.136,22.624 145.656,23.344 147.312,24.064 C149.616,25.072 150.12,25.216 151.704,25.216 Z M144.936,54.304 L142.488,54.304 C140.184,54.304 137.304,54.448 136.296,55.096 C134.568,56.176 132.84,58.408 132.84,61.144 C132.84,65.032 135.936,68.272 142.488,68.272 C148.896,68.272 153.144,64.672 153.144,60.568 C153.144,56.176 150.12,54.304 144.936,54.304 Z M141.048,41.2 C144.936,41.2 146.952,38.104 146.952,33.712 C146.952,28.816 144.936,24.712 140.544,24.712 C137.088,24.712 134.496,27.88 134.496,32.776 C134.496,37.888 137.592,41.2 141.048,41.2 Z M164.592,43.936 C164.592,49.12 164.52,49.84 161.856,50.2 L160.344,50.416 C159.84,50.776 159.984,52 160.488,52.216 C162.504,52.072 164.664,52 167.256,52 C169.776,52 171.864,52.072 174.024,52.216 C174.528,52 174.672,50.776 174.168,50.416 L172.656,50.2 C170.064,49.84 169.92,49.12 169.92,43.936 L169.92,30.976 C169.92,28.024 170.064,24.568 170.208,22.048 C170.136,21.76 169.848,21.616 169.488,21.616 C167.832,22.696 163.728,24.568 162.072,25.144 C161.712,25.36 161.712,26.152 162,26.44 L162.648,26.872 C164.592,28.168 164.592,28.528 164.592,31.336 L164.592,43.936 Z M166.968,7.072 C164.808,7.072 163.08,8.584 163.08,10.96 C163.08,12.904 164.52,14.56 166.752,14.56 C168.768,14.56 170.568,13.408 170.568,10.816 C170.568,8.8 169.128,7.072 166.968,7.072 Z M197.136,26.656 L189.432,26.656 C188.208,26.656 188.208,26.8 188.208,28.744 L188.208,43.936 C188.208,49.12 188.352,49.984 190.944,50.2 L193.536,50.416 C194.04,50.776 193.896,52 193.392,52.216 C190.152,52.072 188.064,52 185.544,52 C182.952,52 180.792,52.072 178.632,52.216 C178.128,52 177.984,50.776 178.488,50.416 L180.144,50.2 C182.808,49.84 182.88,49.12 182.88,43.936 L182.88,28.744 C182.88,26.8 182.88,26.656 181.44,26.656 L178.92,26.656 C178.488,26.368 178.416,25.72 178.704,25.288 L181.8,23.776 C182.376,23.488 182.88,23.056 182.88,22.336 C182.88,18.16 183.384,13.696 185.112,9.664 C186.912,5.56 190.944,0.52 198.072,0.52 C201.888,0.52 205.128,2.248 205.128,4.84 C205.128,6.28 203.76,7.432 202.392,7.432 C201.6,7.432 201.168,7.144 200.664,6.568 C199.296,4.984 197.28,3.4 194.904,3.4 C192.672,3.4 190.872,4.768 189.792,7.36 C188.496,10.672 188.208,15.928 188.208,19.528 L188.208,21.616 C188.208,23.56 188.208,23.632 189.432,23.632 L197.64,23.632 C198.432,24.352 197.928,26.368 197.136,26.656 Z M201.816,69.928 C199.728,69.928 198.648,68.632 198.648,66.832 C198.648,64.888 199.944,63.952 201.528,63.952 L202.896,63.952 C204.048,63.952 204.768,63.448 205.272,62.656 C207.36,59.416 208.8,56.392 209.448,54.664 C209.664,54.088 210.168,52.576 210.168,51.568 C210.168,50.128 209.88,49.264 208.944,46.6 L203.328,31.192 C202.104,27.808 201.6,26.08 199.08,25.576 L197.28,25.216 C196.848,24.856 196.92,23.632 197.496,23.416 C199.8,23.56 201.96,23.632 204.336,23.632 C206.28,23.632 208.296,23.56 210.6,23.416 C211.176,23.632 211.248,24.856 210.744,25.216 L208.944,25.576 C207.936,25.792 207.36,26.008 207.36,26.512 C207.36,27.376 209.016,32.056 209.448,33.28 L211.752,39.904 C212.184,41.056 213.552,44.872 213.84,45.016 C214.056,44.872 215.208,42.64 216.504,39.688 L218.952,34 C220.536,30.256 221.472,27.592 221.472,26.8 C221.472,26.296 221.04,25.792 219.744,25.576 L217.512,25.216 C217.008,24.856 217.08,23.632 217.656,23.416 C219.96,23.56 222.12,23.632 223.992,23.632 C225.792,23.632 227.448,23.56 229.464,23.416 C230.04,23.704 230.112,24.784 229.608,25.216 L228.384,25.432 C226.008,25.864 224.712,27.952 222.264,33.064 L218.232,41.344 C215.856,46.168 209.952,58.696 206.424,66.544 C205.2,69.28 203.472,69.928 201.816,69.928 Z" id="Wingify" fill="#D8DDE3"></path>
                <path d="M57.1464844,84.4521484 C57.1464844,86.5732528 56.5576231,88.1948186 55.3798828,89.3168945 C54.2021425,90.4389705 52.5058704,91 50.2910156,91 L46.6962891,91 L46.6962891,78.1503906 L50.6689453,78.1503906 C52.7138774,78.1503906 54.3046818,78.7011664 55.4414062,79.8027344 C56.5781307,80.9043024 57.1464844,82.4540916 57.1464844,84.4521484 Z M54.9316406,84.5224609 C54.9316406,81.4462737 53.4931784,79.9082031 50.6162109,79.9082031 L48.796875,79.9082031 L48.796875,89.2333984 L50.2910156,89.2333984 C53.3847811,89.2333984 54.9316406,87.6631016 54.9316406,84.5224609 Z M81.1748047,91 L73.90625,91 L73.90625,78.1503906 L81.1748047,78.1503906 L81.1748047,79.9257812 L76.0068359,79.9257812 L76.0068359,83.4238281 L80.8496094,83.4238281 L80.8496094,85.1816406 L76.0068359,85.1816406 L76.0068359,89.2158203 L81.1748047,89.2158203 L81.1748047,91 Z M105.361328,87.5107422 C105.361328,88.653326 104.948246,89.5498014 104.12207,90.2001953 C103.295894,90.8505892 102.156257,91.1757812 100.703125,91.1757812 C99.2499927,91.1757812 98.0605515,90.9501976 97.1347656,90.4990234 L97.1347656,88.5126953 C97.7207061,88.7880873 98.3432584,89.004882 99.0024414,89.1630859 C99.6616244,89.3212899 100.275388,89.4003906 100.84375,89.4003906 C101.675785,89.4003906 102.289549,89.2421891 102.685059,88.9257812 C103.080568,88.6093734 103.27832,88.184573 103.27832,87.6513672 C103.27832,87.170896 103.096682,86.7636735 102.733398,86.4296875 C102.370115,86.0957015 101.620123,85.7001976 100.483398,85.2431641 C99.3115176,84.7685523 98.485354,84.2265655 98.0048828,83.6171875 C97.5244117,83.0078095 97.2841797,82.2753949 97.2841797,81.4199219 C97.2841797,80.3476509 97.6650353,79.5039093 98.4267578,78.8886719 C99.1884804,78.2734344 100.210931,77.9658203 101.494141,77.9658203 C102.724616,77.9658203 103.949213,78.2353489 105.167969,78.7744141 L104.5,80.4882812 C103.357416,80.0078101 102.337895,79.7675781 101.441406,79.7675781 C100.761715,79.7675781 100.246096,79.9155259 99.8945312,80.2114258 C99.542967,80.5073257 99.3671875,80.8984351 99.3671875,81.3847656 C99.3671875,81.7187517 99.4374993,82.0043933 99.578125,82.2416992 C99.7187507,82.4790051 99.9501937,82.7031239 100.272461,82.9140625 C100.594728,83.1250011 101.1748,83.4033186 102.012695,83.7490234 C102.956059,84.1416035 103.647459,84.5078108 104.086914,84.8476562 C104.526369,85.1875017 104.848632,85.5712869 105.053711,85.9990234 C105.25879,86.42676 105.361328,86.9306612 105.361328,87.5107422 Z M121.848633,91 L121.848633,78.1503906 L123.949219,78.1503906 L123.949219,91 L121.848633,91 Z M146.597656,84.0302734 L151.326172,84.0302734 L151.326172,90.4814453 C150.552731,90.7333997 149.810062,90.9121088 149.098145,91.0175781 C148.386227,91.1230474 147.617192,91.1757812 146.791016,91.1757812 C144.845693,91.1757812 143.345708,90.6001034 142.291016,89.4487305 C141.236323,88.2973575 140.708984,86.6728621 140.708984,84.5751953 C140.708984,82.5068256 141.303705,80.8881894 142.493164,79.7192383 C143.682623,78.5502871 145.320302,77.9658203 147.40625,77.9658203 C148.748054,77.9658203 150.019525,78.2236302 151.220703,78.7392578 L150.482422,80.4882812 C149.439448,80.0078101 148.39649,79.7675781 147.353516,79.7675781 C145.982415,79.7675781 144.898441,80.1982379 144.101562,81.0595703 C143.304684,81.9209027 142.90625,83.0986253 142.90625,84.5927734 C142.90625,86.1630938 143.265133,87.3569295 143.98291,88.1743164 C144.700687,88.9917033 145.733392,89.4003906 147.081055,89.4003906 C147.760746,89.4003906 148.487301,89.3154305 149.260742,89.1455078 L149.260742,85.8320312 L146.597656,85.8320312 L146.597656,84.0302734 Z M179.116211,91 L176.541016,91 L170.22168,80.7607422 L170.151367,80.7607422 L170.195312,81.3320312 C170.277344,82.4218804 170.318359,83.4179642 170.318359,84.3203125 L170.318359,91 L168.411133,91 L168.411133,78.1503906 L170.959961,78.1503906 L177.261719,88.3369141 L177.314453,88.3369141 C177.302734,88.2021478 177.279297,87.71143 177.244141,86.8647461 C177.208984,86.0180622 177.191406,85.3574242 177.191406,84.8828125 L177.191406,78.1503906 L179.116211,78.1503906 L179.116211,91 Z" id="Design" fill="#2B3945"></path>
            </g>
        </g>
    </g>
</svg>